<svg width="933" height="746" viewBox="0 0 933 746" fill="none" xmlns="http://www.w3.org/2000/svg">
<path fill-rule="evenodd" clip-rule="evenodd" d="M232.456 35H716.655L762.5 132C467.224 132 385.898 132.561 190.232 133.912L177.5 134L232.456 35ZM167.5 156H215L125.5 391L57 340L167.5 156ZM253 156H329L246.5 497.5L170.5 427L253 156ZM453 156H377.5L301.5 543L441.5 649L453 156ZM500 156H577L631 546L511 649L500 156ZM684.5 156H622.5L677 497.402L771 427.902L684.5 156ZM727.5 156H771.5L876 338.5L817.5 390.5L727.5 156Z" fill="url(#paint0_linear_70_8)"/>
<path d="M716.655 35L720.724 33.0771L719.506 30.5H716.655V35ZM232.456 35V30.5H229.808L228.522 32.8159L232.456 35ZM762.5 132V136.5H769.604L766.568 130.077L762.5 132ZM190.232 133.912L190.263 138.412H190.263L190.232 133.912ZM177.5 134L173.566 131.816L169.826 138.553L177.531 138.5L177.5 134ZM215 156L219.205 157.602L221.529 151.5H215V156ZM167.5 156V151.5H164.953L163.642 153.683L167.5 156ZM125.5 391L122.813 394.609L127.587 398.164L129.705 392.602L125.5 391ZM57 340L53.1422 337.683L51.0445 341.176L54.3127 343.609L57 340ZM329 156L333.374 157.057L334.717 151.5H329V156ZM253 156V151.5H249.666L248.695 154.689L253 156ZM246.5 497.5L243.44 500.799L249.071 506.023L250.874 498.557L246.5 497.5ZM170.5 427L166.195 425.689L165.375 428.384L167.44 430.299L170.5 427ZM377.5 156V151.5H373.798L373.084 155.133L377.5 156ZM453 156L457.499 156.105L457.606 151.5H453V156ZM301.5 543L297.084 542.133L296.543 544.891L298.784 546.588L301.5 543ZM441.5 649L438.784 652.588L445.794 657.895L445.999 649.105L441.5 649ZM577 156L581.457 155.383L580.92 151.5H577V156ZM500 156V151.5H495.398L495.501 156.1L500 156ZM631 546L633.931 549.415L635.794 547.815L635.457 545.383L631 546ZM511 649L506.501 649.1L506.713 658.61L513.931 652.415L511 649ZM622.5 156V151.5H617.225L618.056 156.709L622.5 156ZM684.5 156L688.788 154.636L687.791 151.5H684.5V156ZM677 497.402L672.556 498.112L673.723 505.422L679.675 501.021L677 497.402ZM771 427.902L773.675 431.521L776.264 429.607L775.288 426.538L771 427.902ZM771.5 156L775.405 153.764L774.109 151.5H771.5V156ZM727.5 156V151.5H720.953L723.299 157.612L727.5 156ZM876 338.5L878.99 341.863L881.721 339.435L879.905 336.264L876 338.5ZM817.5 390.5L813.299 392.112L815.629 398.184L820.49 393.863L817.5 390.5ZM222.5 5V0.5H220.056L218.726 2.54974L222.5 5ZM728 5L731.903 2.76064L730.606 0.5H728V5ZM927 338.5L929.99 341.863L932.813 339.352L930.83 336.137L927 338.5ZM475.5 740L472.575 743.42L475.558 745.971L478.49 743.363L475.5 740ZM6 338.5L2.22558 336.05L0.078474 339.357L3.07534 341.92L6 338.5ZM817.5 161L813.597 163.239L813.632 163.302L813.67 163.363L817.5 161ZM716.655 30.5H232.456V39.5H716.655V30.5ZM766.568 130.077L720.724 33.0771L712.587 36.9229L758.432 133.923L766.568 130.077ZM190.263 138.412C385.92 137.061 467.236 136.5 762.5 136.5V127.5C467.212 127.5 385.875 128.061 190.201 129.412L190.263 138.412ZM177.531 138.5L190.263 138.412L190.201 129.412L177.469 129.5L177.531 138.5ZM228.522 32.8159L173.566 131.816L181.434 136.184L236.391 37.1841L228.522 32.8159ZM215 151.5H167.5V160.5H215V151.5ZM129.705 392.602L219.205 157.602L210.795 154.398L121.295 389.398L129.705 392.602ZM54.3127 343.609L122.813 394.609L128.187 387.391L59.6873 336.391L54.3127 343.609ZM163.642 153.683L53.1422 337.683L60.8578 342.317L171.358 158.317L163.642 153.683ZM329 151.5H253V160.5H329V151.5ZM250.874 498.557L333.374 157.057L324.626 154.943L242.126 496.443L250.874 498.557ZM167.44 430.299L243.44 500.799L249.56 494.201L173.56 423.701L167.44 430.299ZM248.695 154.689L166.195 425.689L174.805 428.311L257.305 157.311L248.695 154.689ZM377.5 160.5H453V151.5H377.5V160.5ZM305.916 543.867L381.916 156.867L373.084 155.133L297.084 542.133L305.916 543.867ZM444.216 645.412L304.216 539.412L298.784 546.588L438.784 652.588L444.216 645.412ZM448.501 155.895L437.001 648.895L445.999 649.105L457.499 156.105L448.501 155.895ZM577 151.5H500V160.5H577V151.5ZM635.457 545.383L581.457 155.383L572.543 156.617L626.543 546.617L635.457 545.383ZM513.931 652.415L633.931 549.415L628.069 542.585L508.069 645.585L513.931 652.415ZM495.501 156.1L506.501 649.1L515.499 648.9L504.499 155.9L495.501 156.1ZM622.5 160.5H684.5V151.5H622.5V160.5ZM681.444 496.693L626.944 155.291L618.056 156.709L672.556 498.112L681.444 496.693ZM768.325 424.284L674.325 493.784L679.675 501.021L773.675 431.521L768.325 424.284ZM680.212 157.364L766.712 429.267L775.288 426.538L688.788 154.636L680.212 157.364ZM771.5 151.5H727.5V160.5H771.5V151.5ZM879.905 336.264L775.405 153.764L767.595 158.236L872.095 340.736L879.905 336.264ZM820.49 393.863L878.99 341.863L873.01 335.137L814.51 387.137L820.49 393.863ZM723.299 157.612L813.299 392.112L821.701 388.888L731.701 154.388L723.299 157.612ZM222.5 9.5H468V0.5H222.5V9.5ZM468 9.5H728V0.5H468V9.5ZM924.01 335.137L472.51 736.637L478.49 743.363L929.99 341.863L924.01 335.137ZM478.425 736.58L8.92466 335.08L3.07534 341.92L472.575 743.42L478.425 736.58ZM9.77442 340.95L226.274 7.45026L218.726 2.54974L2.22558 336.05L9.77442 340.95ZM724.097 7.23936L813.597 163.239L821.403 158.761L731.903 2.76064L724.097 7.23936ZM813.67 163.363L923.17 340.863L930.83 336.137L821.33 158.637L813.67 163.363Z" fill="url(#paint1_linear_70_8)"/>
<defs>
<linearGradient id="paint0_linear_70_8" x1="901.5" y1="439" x2="396.5" y2="156" gradientUnits="userSpaceOnUse">
<stop stop-color="#4589FF"/>
<stop offset="1" stop-color="#A6C8FF"/>
</linearGradient>
<linearGradient id="paint1_linear_70_8" x1="875.5" y1="455" x2="441.5" y2="149.5" gradientUnits="userSpaceOnUse">
<stop stop-color="#4589FF"/>
<stop offset="1" stop-color="#A6C8FF"/>
</linearGradient>
</defs>
</svg>
